<svg width="96" height="20" viewBox="0 0 96 20" fill="none" xmlns="http://www.w3.org/2000/svg">
<path d="M9.28671 2.19529C9.51122 1.5043 10.4888 1.5043 10.7133 2.19529L12.0768 6.39159C12.1772 6.70061 12.4651 6.90983 12.79 6.90983H17.2023C17.9288 6.90983 18.2309 7.83954 17.6431 8.26659L14.0736 10.8601C13.8107 11.051 13.7007 11.3896 13.8011 11.6986L15.1646 15.8949C15.3891 16.5859 14.5982 17.1605 14.0104 16.7334L10.4408 14.1399C10.178 13.949 9.82203 13.949 9.55916 14.1399L5.98957 16.7334C5.40179 17.1605 4.61093 16.5859 4.83544 15.8949L6.1989 11.6986C6.29931 11.3896 6.18931 11.051 5.92645 10.8601L2.35686 8.26659C1.76907 7.83954 2.07115 6.90983 2.7977 6.90983H7.20995C7.53487 6.90983 7.82284 6.70061 7.92325 6.39159L9.28671 2.19529Z" fill="#FEE100"/>
<path d="M28.2867 2.19529C28.5112 1.5043 29.4888 1.5043 29.7133 2.19529L31.0768 6.39159C31.1772 6.70061 31.4651 6.90983 31.79 6.90983H36.2023C36.9288 6.90983 37.2309 7.83954 36.6431 8.26659L33.0736 10.8601C32.8107 11.051 32.7007 11.3896 32.8011 11.6986L34.1646 15.8949C34.3891 16.5859 33.5982 17.1605 33.0104 16.7334L29.4408 14.1399C29.178 13.949 28.822 13.949 28.5592 14.1399L24.9896 16.7334C24.4018 17.1605 23.6109 16.5859 23.8354 15.8949L25.1989 11.6986C25.2993 11.3896 25.1893 11.051 24.9264 10.8601L21.3569 8.26659C20.7691 7.83954 21.0712 6.90983 21.7977 6.90983H26.21C26.5349 6.90983 26.8228 6.70061 26.9232 6.39159L28.2867 2.19529Z" fill="#FEE100"/>
<path d="M47.2867 2.19529C47.5112 1.5043 48.4888 1.5043 48.7133 2.19529L50.0768 6.39159C50.1772 6.70061 50.4651 6.90983 50.79 6.90983H55.2023C55.9288 6.90983 56.2309 7.83954 55.6431 8.26659L52.0736 10.8601C51.8107 11.051 51.7007 11.3896 51.8011 11.6986L53.1646 15.8949C53.3891 16.5859 52.5982 17.1605 52.0104 16.7334L48.4408 14.1399C48.178 13.949 47.822 13.949 47.5592 14.1399L43.9896 16.7334C43.4018 17.1605 42.6109 16.5859 42.8354 15.8949L44.1989 11.6986C44.2993 11.3896 44.1893 11.051 43.9264 10.8601L40.3569 8.26659C39.7691 7.83954 40.0712 6.90983 40.7977 6.90983H45.21C45.5349 6.90983 45.8228 6.70061 45.9232 6.39159L47.2867 2.19529Z" fill="#FEE100"/>
<path d="M66.2867 2.19529C66.5112 1.5043 67.4888 1.5043 67.7133 2.19529L69.0768 6.39159C69.1772 6.70061 69.4651 6.90983 69.79 6.90983H74.2023C74.9288 6.90983 75.2309 7.83954 74.6431 8.26659L71.0736 10.8601C70.8107 11.051 70.7007 11.3896 70.8011 11.6986L72.1646 15.8949C72.3891 16.5859 71.5982 17.1605 71.0104 16.7334L67.4408 14.1399C67.178 13.949 66.822 13.949 66.5592 14.1399L62.9896 16.7334C62.4018 17.1605 61.6109 16.5859 61.8354 15.8949L63.1989 11.6986C63.2993 11.3896 63.1893 11.051 62.9264 10.8601L59.3569 8.26659C58.7691 7.83954 59.0712 6.90983 59.7977 6.90983H64.21C64.5349 6.90983 64.8228 6.70061 64.9232 6.39159L66.2867 2.19529Z" fill="#FEE100"/>
<path d="M85.2867 2.19529C85.5112 1.5043 86.4888 1.5043 86.7133 2.19529L88.0768 6.39159C88.1772 6.70061 88.4651 6.90983 88.79 6.90983H93.2023C93.9288 6.90983 94.2309 7.83954 93.6431 8.26659L90.0736 10.8601C89.8107 11.051 89.7007 11.3896 89.8011 11.6986L91.1646 15.8949C91.3891 16.5859 90.5982 17.1605 90.0104 16.7334L86.4408 14.1399C86.178 13.949 85.822 13.949 85.5592 14.1399L81.9896 16.7334C81.4018 17.1605 80.6109 16.5859 80.8354 15.8949L82.1989 11.6986C82.2993 11.3896 82.1893 11.051 81.9264 10.8601L78.3569 8.26659C77.7691 7.83954 78.0712 6.90983 78.7977 6.90983H83.21C83.5349 6.90983 83.8228 6.70061 83.9232 6.39159L85.2867 2.19529Z" fill="#FEE100"/>
</svg>
