<svg width="141" height="40" viewBox="0 0 141 40" fill="none" xmlns="http://www.w3.org/2000/svg">
<path fill-rule="evenodd" clip-rule="evenodd" d="M23.0798 11.6789C21.1093 9.61579 18.3632 8.28947 15.3027 8.16316H14.8834C13.5837 8.16316 12.3679 8.37368 11.2569 8.73158C8.88813 9.51053 6.93861 11.0684 5.59701 13.0053C4.77947 14.1842 4.19251 15.4895 3.83615 16.8789H3.62652H2.5784H0.314439C1.09005 13.1737 3.2492 9.97368 6.20492 7.82632C6.20492 7.82632 7.19016 7.08947 8.57369 6.41579C10.1459 5.67895 11.8648 5.19474 13.6886 5.04737C14.8625 4.98421 14.8834 4.98421 16.0573 5.04737C17.8811 5.19474 19.6 5.65789 21.1722 6.41579C21.9897 6.85789 22.409 7.04737 23.541 7.82632C26.4967 9.97368 28.6558 13.1737 29.4314 16.8789H27.1884H26.1403H25.9517C25.4905 14.9 24.4633 13.1105 23.0798 11.6789ZM11.0053 28.1842C11.4875 29.1947 11.9067 30.3526 12.1164 31.4684L12.2841 32.4158L12.3679 33.0684L12.4308 34.7316C5.57604 33.5737 0.272513 27.6789 0 20.5421C2.62032 20.9211 4.98909 21.8263 7.10631 23.4263C8.23829 24.2895 9.05583 25.1947 9.89433 26.3316L11.0053 28.1842ZM17.336 34.7316C17.2732 27.5316 22.0107 21.6579 29.7668 20.5421C29.4943 27.6789 24.1698 33.5947 17.336 34.7316ZM14.8834 16.7105C16.5185 16.7105 17.8182 18.0789 17.7553 19.6789L17.7343 19.9947C17.6505 20.6684 17.3151 21.2789 16.8329 21.7211L16.4766 21.9947L15.9106 22.2895C15.8058 22.3105 15.5962 22.4158 15.1559 22.4789L14.9463 22.5L13.8982 22.3316L13.437 22.1211L13.0806 21.8684L12.8081 21.6158L12.7662 21.5737L12.5566 21.3211L12.5147 21.2789L12.4518 21.1737L12.1583 20.5421C11.5713 18.7526 12.8291 16.7105 14.8834 16.7105ZM15.2398 10.1C17.7763 10.2053 20.0612 11.3 21.6963 13.0053C22.7444 14.1 23.52 15.4263 23.9602 16.8789H23.8344H22.7653H20.4595C19.4742 14.7947 17.357 13.3421 14.8834 13.3421C12.4098 13.3421 10.2926 14.7737 9.28642 16.8789H6.98054H5.91144H5.82759C6.12107 15.8895 6.58225 14.9421 7.1692 14.1C8.28021 12.5 9.89433 11.2158 11.8648 10.5632C12.7872 10.2474 13.8143 10.0789 14.9044 10.0789L15.2398 10.1Z" fill="#FEE100"/>
<path d="M60.1143 19.5117C60.1143 21.709 59.6895 23.5889 58.8398 25.1514C57.9902 26.7139 56.8086 27.915 55.2949 28.7549C53.791 29.585 52.0479 30 50.0654 30H41.9209V9.36035H49.1865C52.6631 9.36035 55.3535 10.2393 57.2578 11.9971C59.1621 13.7451 60.1143 16.25 60.1143 19.5117ZM56.2764 19.5117C56.2764 17.1777 55.6562 15.4004 54.416 14.1797C53.1855 12.9492 51.4131 12.334 49.0986 12.334H45.7441V27.0264H49.7139C51.0518 27.0264 52.209 26.7236 53.1855 26.1182C54.1621 25.5029 54.9189 24.6338 55.4561 23.5107C56.0029 22.3877 56.2764 21.0547 56.2764 19.5117ZM66.457 22.793C66.457 24.4238 66.7695 25.6689 67.3945 26.5283C68.0293 27.3779 68.9424 27.8027 70.1338 27.8027C70.9932 27.8027 71.6914 27.6221 72.2285 27.2607C72.7656 26.8896 73.1367 26.377 73.3418 25.7227L76.7109 26.1768C75.6465 28.9209 73.4053 30.293 69.9873 30.293C67.624 30.293 65.8076 29.5898 64.5381 28.1836C63.2783 26.7773 62.6484 24.7119 62.6484 21.9873C62.6484 19.3701 63.2832 17.3633 64.5527 15.9668C65.832 14.5605 67.6484 13.8574 70.002 13.8574C72.2969 13.8574 74.0352 14.5947 75.2168 16.0693C76.4082 17.5439 77.0039 19.7168 77.0039 22.5879V22.793H66.457ZM73.4443 20.3906C73.3369 18.9844 72.9854 17.9395 72.3896 17.2559C71.8037 16.5723 70.9883 16.2305 69.9434 16.2305C68.8691 16.2305 68.0342 16.6016 67.4385 17.3438C66.8428 18.0762 66.5254 19.0918 66.4863 20.3906H73.4443ZM94.1426 14.1504L88.2832 30H83.9619L78.2637 14.1504H82.1016L85.1045 23.4961C85.1826 23.7207 85.3047 24.1357 85.4707 24.7412C85.6367 25.3369 85.8564 26.123 86.1299 27.0996C86.1982 26.875 86.291 26.5576 86.4082 26.1475C86.5352 25.7373 86.667 25.3076 86.8037 24.8584C86.9502 24.3994 87.0771 24.0088 87.1846 23.6865L90.3486 14.1504H94.1426ZM110.871 22.0605C110.871 24.6973 110.192 26.7285 108.835 28.1543C107.478 29.5801 105.568 30.293 103.107 30.293C100.695 30.293 98.8203 29.5703 97.4824 28.125C96.1543 26.6797 95.4902 24.6582 95.4902 22.0605C95.4902 19.4531 96.1543 17.4365 97.4824 16.0107C98.8203 14.5752 100.725 13.8574 103.195 13.8574C105.734 13.8574 107.648 14.5508 108.938 15.9375C110.227 17.3242 110.871 19.3652 110.871 22.0605ZM107.077 22.0605C107.077 20.0781 106.76 18.6377 106.125 17.7393C105.5 16.8408 104.543 16.3916 103.254 16.3916C101.906 16.3916 100.91 16.8604 100.266 17.7979C99.6211 18.7256 99.2988 20.1465 99.2988 22.0605C99.2988 23.9355 99.6113 25.3564 100.236 26.3232C100.871 27.29 101.818 27.7734 103.078 27.7734C104.445 27.7734 105.451 27.3047 106.096 26.3672C106.75 25.4199 107.077 23.9844 107.077 22.0605ZM117.082 22.793C117.082 24.4238 117.395 25.6689 118.02 26.5283C118.654 27.3779 119.567 27.8027 120.759 27.8027C121.618 27.8027 122.316 27.6221 122.854 27.2607C123.391 26.8896 123.762 26.377 123.967 25.7227L127.336 26.1768C126.271 28.9209 124.03 30.293 120.612 30.293C118.249 30.293 116.433 29.5898 115.163 28.1836C113.903 26.7773 113.273 24.7119 113.273 21.9873C113.273 19.3701 113.908 17.3633 115.178 15.9668C116.457 14.5605 118.273 13.8574 120.627 13.8574C122.922 13.8574 124.66 14.5947 125.842 16.0693C127.033 17.5439 127.629 19.7168 127.629 22.5879V22.793H117.082ZM124.069 20.3906C123.962 18.9844 123.61 17.9395 123.015 17.2559C122.429 16.5723 121.613 16.2305 120.568 16.2305C119.494 16.2305 118.659 16.6016 118.063 17.3438C117.468 18.0762 117.15 19.0918 117.111 20.3906H124.069ZM134.484 22.0605V30H130.866V17.8564C130.866 17.0947 130.852 16.4209 130.822 15.835C130.803 15.2393 130.778 14.6777 130.749 14.1504H134.206C134.226 14.3555 134.24 14.6191 134.25 14.9414C134.27 15.2637 134.289 15.5957 134.309 15.9375C134.328 16.2793 134.343 16.5918 134.353 16.875C134.362 17.1582 134.367 17.3633 134.367 17.4902H134.426C134.787 16.4355 135.134 15.6641 135.466 15.1758C135.788 14.707 136.164 14.3701 136.594 14.165C137.023 13.9502 137.561 13.8428 138.205 13.8428C138.684 13.8428 139.089 13.9111 139.421 14.0479V17.1387C138.874 17.0117 138.327 16.9482 137.78 16.9482C136.726 16.9482 135.91 17.3828 135.334 18.252C134.768 19.1211 134.484 20.3906 134.484 22.0605Z" fill="white"/>
</svg>
