<svg width="30" height="30" viewBox="0 0 30 30" fill="none" xmlns="http://www.w3.org/2000/svg">
<path fill-rule="evenodd" clip-rule="evenodd" d="M23.0798 6.67895C21.1093 4.61579 18.3632 3.28947 15.3027 3.16316H14.8834C13.5837 3.16316 12.3679 3.37368 11.2569 3.73158C8.88813 4.51053 6.93861 6.06842 5.59701 8.00526C4.77947 9.18421 4.19251 10.4895 3.83615 11.8789H3.62652H2.5784H0.314439C1.09005 8.17368 3.2492 4.97368 6.20492 2.82632C6.20492 2.82632 7.19016 2.08947 8.57369 1.41579C10.1459 0.678947 11.8648 0.194737 13.6886 0.0473684C14.8625 -0.0157895 14.8834 -0.0157895 16.0573 0.0473684C17.8811 0.194737 19.6 0.657895 21.1722 1.41579C21.9897 1.85789 22.409 2.04737 23.541 2.82632C26.4967 4.97368 28.6558 8.17368 29.4314 11.8789H27.1884H26.1403H25.9517C25.4905 9.9 24.4633 8.11053 23.0798 6.67895ZM11.0053 23.1842C11.4875 24.1947 11.9067 25.3526 12.1164 26.4684L12.2841 27.4158L12.3679 28.0684L12.4308 29.7316C5.57604 28.5737 0.272513 22.6789 0 15.5421C2.62032 15.9211 4.98909 16.8263 7.10631 18.4263C8.23829 19.2895 9.05583 20.1947 9.89433 21.3316L11.0053 23.1842ZM17.336 29.7316C17.2732 22.5316 22.0107 16.6579 29.7668 15.5421C29.4943 22.6789 24.1698 28.5947 17.336 29.7316ZM14.8834 11.7105C16.5185 11.7105 17.8182 13.0789 17.7553 14.6789L17.7343 14.9947C17.6505 15.6684 17.3151 16.2789 16.8329 16.7211L16.4766 16.9947L15.9106 17.2895C15.8058 17.3105 15.5962 17.4158 15.1559 17.4789L14.9463 17.5L13.8982 17.3316L13.437 17.1211L13.0806 16.8684L12.8081 16.6158L12.7662 16.5737L12.5566 16.3211L12.5147 16.2789L12.4518 16.1737L12.1583 15.5421C11.5713 13.7526 12.8291 11.7105 14.8834 11.7105ZM15.2398 5.1C17.7763 5.20526 20.0612 6.3 21.6963 8.00526C22.7444 9.1 23.52 10.4263 23.9602 11.8789H23.8344H22.7653H20.4595C19.4742 9.79474 17.357 8.3421 14.8834 8.3421C12.4098 8.3421 10.2926 9.77368 9.28642 11.8789H6.98054H5.91144H5.82759C6.12107 10.8895 6.58225 9.94211 7.1692 9.1C8.28021 7.5 9.89433 6.21579 11.8648 5.56316C12.7872 5.24737 13.8143 5.07895 14.9044 5.07895L15.2398 5.1Z" fill="#FEE100"/>
</svg>
