<svg width="141" height="40" viewBox="0 0 141 40" fill="none" xmlns="http://www.w3.org/2000/svg">
<path fill-rule="evenodd" clip-rule="evenodd" d="M23.0798 11.6788C21.1093 9.61567 18.3632 8.28935 15.3027 8.16304H14.8834C13.5837 8.16304 12.3679 8.37356 11.2569 8.73146C8.88813 9.5104 6.93861 11.0683 5.59701 13.0051C4.77947 14.1841 4.19251 15.4894 3.83615 16.8788H3.62652H2.5784H0.314439C1.09005 13.1736 3.2492 9.97356 6.20492 7.82619C6.20492 7.82619 7.19016 7.08935 8.57369 6.41567C10.1459 5.67883 11.8648 5.19461 13.6886 5.04725C14.8625 4.98409 14.8834 4.98409 16.0573 5.04725C17.8811 5.19461 19.6 5.65777 21.1722 6.41567C21.9897 6.85777 22.409 7.04725 23.541 7.82619C26.4967 9.97356 28.6558 13.1736 29.4314 16.8788H27.1884H26.1403H25.9517C25.4905 14.8999 24.4633 13.1104 23.0798 11.6788ZM11.0053 28.1841C11.4875 29.1946 11.9067 30.3525 12.1164 31.4683L12.2841 32.4157L12.3679 33.0683L12.4308 34.7315C5.57604 33.5736 0.272513 27.6788 0 20.542C2.62032 20.9209 4.98909 21.8262 7.10631 23.4262C8.23829 24.2894 9.05583 25.1946 9.89433 26.3315L11.0053 28.1841ZM17.336 34.7315C17.2732 27.5315 22.0107 21.6578 29.7668 20.542C29.4943 27.6788 24.1698 33.5946 17.336 34.7315ZM14.8834 16.7104C16.5185 16.7104 17.8182 18.0788 17.7553 19.6788L17.7343 19.9946C17.6505 20.6683 17.3151 21.2788 16.8329 21.7209L16.4766 21.9946L15.9106 22.2894C15.8058 22.3104 15.5962 22.4157 15.1559 22.4788L14.9463 22.4999L13.8982 22.3315L13.437 22.1209L13.0806 21.8683L12.8081 21.6157L12.7662 21.5736L12.5566 21.3209L12.5147 21.2788L12.4518 21.1736L12.1583 20.542C11.5713 18.7525 12.8291 16.7104 14.8834 16.7104ZM15.2398 10.0999C17.7763 10.2051 20.0612 11.2999 21.6963 13.0051C22.7444 14.0999 23.52 15.4262 23.9602 16.8788H23.8344H22.7653H20.4595C19.4742 14.7946 17.357 13.342 14.8834 13.342C12.4098 13.342 10.2926 14.7736 9.28642 16.8788H6.98054H5.91144H5.82759C6.12107 15.8894 6.58225 14.942 7.1692 14.0999C8.28021 12.4999 9.89433 11.2157 11.8648 10.563C12.7872 10.2472 13.8143 10.0788 14.9044 10.0788L15.2398 10.0999Z" fill="#141C21"/>
<path d="M60.1123 19.5117C60.1123 21.709 59.6875 23.5889 58.8379 25.1514C57.9883 26.7139 56.8066 27.915 55.293 28.7549C53.7891 29.585 52.0459 30 50.0635 30H41.9189V9.36035H49.1846C52.6611 9.36035 55.3516 10.2393 57.2559 11.9971C59.1602 13.7451 60.1123 16.25 60.1123 19.5117ZM56.2744 19.5117C56.2744 17.1777 55.6543 15.4004 54.4141 14.1797C53.1836 12.9492 51.4111 12.334 49.0967 12.334H45.7422V27.0264H49.7119C51.0498 27.0264 52.207 26.7236 53.1836 26.1182C54.1602 25.5029 54.917 24.6338 55.4541 23.5107C56.001 22.3877 56.2744 21.0547 56.2744 19.5117ZM66.4551 22.793C66.4551 24.4238 66.7676 25.6689 67.3926 26.5283C68.0273 27.3779 68.9404 27.8027 70.1318 27.8027C70.9912 27.8027 71.6895 27.6221 72.2266 27.2607C72.7637 26.8896 73.1348 26.377 73.3398 25.7227L76.709 26.1768C75.6445 28.9209 73.4033 30.293 69.9854 30.293C67.6221 30.293 65.8057 29.5898 64.5361 28.1836C63.2764 26.7773 62.6465 24.7119 62.6465 21.9873C62.6465 19.3701 63.2812 17.3633 64.5508 15.9668C65.8301 14.5605 67.6465 13.8574 70 13.8574C72.2949 13.8574 74.0332 14.5947 75.2148 16.0693C76.4062 17.5439 77.002 19.7168 77.002 22.5879V22.793H66.4551ZM73.4424 20.3906C73.335 18.9844 72.9834 17.9395 72.3877 17.2559C71.8018 16.5723 70.9863 16.2305 69.9414 16.2305C68.8672 16.2305 68.0322 16.6016 67.4365 17.3438C66.8408 18.0762 66.5234 19.0918 66.4844 20.3906H73.4424ZM94.1406 14.1504L88.2812 30H83.96L78.2617 14.1504H82.0996L85.1025 23.4961C85.1807 23.7207 85.3027 24.1357 85.4688 24.7412C85.6348 25.3369 85.8545 26.123 86.1279 27.0996C86.1963 26.875 86.2891 26.5576 86.4062 26.1475C86.5332 25.7373 86.665 25.3076 86.8018 24.8584C86.9482 24.3994 87.0752 24.0088 87.1826 23.6865L90.3467 14.1504H94.1406ZM110.869 22.0605C110.869 24.6973 110.19 26.7285 108.833 28.1543C107.476 29.5801 105.566 30.293 103.105 30.293C100.693 30.293 98.8184 29.5703 97.4805 28.125C96.1523 26.6797 95.4883 24.6582 95.4883 22.0605C95.4883 19.4531 96.1523 17.4365 97.4805 16.0107C98.8184 14.5752 100.723 13.8574 103.193 13.8574C105.732 13.8574 107.646 14.5508 108.936 15.9375C110.225 17.3242 110.869 19.3652 110.869 22.0605ZM107.075 22.0605C107.075 20.0781 106.758 18.6377 106.123 17.7393C105.498 16.8408 104.541 16.3916 103.252 16.3916C101.904 16.3916 100.908 16.8604 100.264 17.7979C99.6191 18.7256 99.2969 20.1465 99.2969 22.0605C99.2969 23.9355 99.6094 25.3564 100.234 26.3232C100.869 27.29 101.816 27.7734 103.076 27.7734C104.443 27.7734 105.449 27.3047 106.094 26.3672C106.748 25.4199 107.075 23.9844 107.075 22.0605ZM117.08 22.793C117.08 24.4238 117.393 25.6689 118.018 26.5283C118.652 27.3779 119.565 27.8027 120.757 27.8027C121.616 27.8027 122.314 27.6221 122.852 27.2607C123.389 26.8896 123.76 26.377 123.965 25.7227L127.334 26.1768C126.27 28.9209 124.028 30.293 120.61 30.293C118.247 30.293 116.431 29.5898 115.161 28.1836C113.901 26.7773 113.271 24.7119 113.271 21.9873C113.271 19.3701 113.906 17.3633 115.176 15.9668C116.455 14.5605 118.271 13.8574 120.625 13.8574C122.92 13.8574 124.658 14.5947 125.84 16.0693C127.031 17.5439 127.627 19.7168 127.627 22.5879V22.793H117.08ZM124.067 20.3906C123.96 18.9844 123.608 17.9395 123.013 17.2559C122.427 16.5723 121.611 16.2305 120.566 16.2305C119.492 16.2305 118.657 16.6016 118.062 17.3438C117.466 18.0762 117.148 19.0918 117.109 20.3906H124.067ZM134.482 22.0605V30H130.864V17.8564C130.864 17.0947 130.85 16.4209 130.82 15.835C130.801 15.2393 130.776 14.6777 130.747 14.1504H134.204C134.224 14.3555 134.238 14.6191 134.248 14.9414C134.268 15.2637 134.287 15.5957 134.307 15.9375C134.326 16.2793 134.341 16.5918 134.351 16.875C134.36 17.1582 134.365 17.3633 134.365 17.4902H134.424C134.785 16.4355 135.132 15.6641 135.464 15.1758C135.786 14.707 136.162 14.3701 136.592 14.165C137.021 13.9502 137.559 13.8428 138.203 13.8428C138.682 13.8428 139.087 13.9111 139.419 14.0479V17.1387C138.872 17.0117 138.325 16.9482 137.778 16.9482C136.724 16.9482 135.908 17.3828 135.332 18.252C134.766 19.1211 134.482 20.3906 134.482 22.0605Z" fill="#141C21"/>
</svg>
