<svg width="169" height="130" viewBox="0 0 169 130" fill="none" xmlns="http://www.w3.org/2000/svg">
<path opacity="0.2" d="M135.77 129.5C125.475 129.5 116.109 124.786 110.497 119.141C101.086 108.715 95.4435 97.3628 95.4434 78.3828C95.4434 45.3034 118.832 15.9208 151.739 0.632812L159.732 12.2578C144.285 20.8343 134.858 30.5823 129.054 40.0039C123.19 49.5216 121.038 58.677 120.083 65.8906L119.946 66.9219L120.837 66.3838C125.459 63.5918 131.98 62.6386 138.547 63.583L138.562 63.585L139.35 63.6826C155.815 65.9123 168.5 79.8671 168.5 96.5439C168.5 104.996 164.769 113.48 159.141 120.099C152.599 126.68 145.138 129.5 135.77 129.5ZM40.8262 129.5C30.5318 129.5 21.1658 124.786 15.5537 119.141C6.14218 108.715 0.500092 97.3629 0.5 78.3828C0.5 45.3033 23.8884 15.9207 56.7959 0.632812L64.7891 12.2578C49.3416 20.8343 39.9148 30.5823 34.1104 40.0039C28.2468 49.5216 26.094 58.677 25.1387 65.8906L25.0029 66.9219L25.8936 66.3838C30.5154 63.592 37.0363 62.6387 43.6025 63.583L43.6182 63.585L44.4062 63.6816C60.8798 65.8838 73.5566 78.9349 73.5566 96.5439C73.5566 104.999 69.8231 113.485 64.1924 120.104C57.6523 126.682 50.1924 129.5 40.8262 129.5Z" stroke="#598216"/>
</svg>
