<svg width="130" height="60" viewBox="0 0 130 60" fill="none" xmlns="http://www.w3.org/2000/svg">
<path fill-rule="evenodd" clip-rule="evenodd" d="M129.803 26.6984C129.615 26.7234 129.436 26.7395 129.257 26.7557C129.231 26.7887 129.209 26.8137 129.192 26.8379C129.075 26.7153 128.63 26.8056 128.509 26.8056L127.69 26.7564C127.661 26.7958 127.635 26.837 127.611 26.8797C127.796 26.9128 127.981 26.9451 128.176 26.9701C128.189 26.9346 128.201 26.8988 128.212 26.8629H128.491C128.517 26.9201 128.517 26.9201 128.659 26.9701C128.785 26.9781 128.91 26.9862 129.039 26.9862C128.938 27.2902 126.085 26.9613 115.138 26.0082C108.88 25.5808 102.705 25.2196 96.4314 25.0228C92.1347 25.0228 92.1347 25.0228 85.9636 25.13C85.8844 25.1631 85.806 25.1961 85.7299 25.2203C86.8771 25.3518 87.6293 25.5162 88.5931 25.6557C88.5783 25.6969 88.5687 25.7299 88.5569 25.7622C89.1693 25.7784 89.1693 25.7784 89.9282 25.9017C90.7152 25.5735 91.864 25.1374 91.5548 26.3129C92.1791 26.4113 92.8692 26.6 93.5526 26.6984L93.4979 26.8629C93.5437 26.8629 93.5438 26.8629 93.5785 26.7557C93.827 26.7806 94.0378 26.8952 94.6126 27.0024C96.2953 27.4708 98.0032 27.9143 99.592 28.6207L99.5469 28.7521C99.6453 28.7521 99.6453 28.7521 99.7378 28.678C99.7319 28.7191 99.7259 28.7602 99.7222 28.7932C100.909 29.0811 101.918 30.0334 102.324 31.2163C102.311 31.7751 102.241 32.9161 101.56 33.1467L101.526 33.2539C101.037 33.4514 100.551 33.6482 100.072 33.8369C97.8346 34.4691 95.7753 34.5594 93.7457 34.6093C91.7419 34.3795 90.375 34.2972 89.2455 32.8676C88.3697 31.1928 88.7359 29.4842 90.0488 27.1925L89.5532 27.1184C88.9016 27.5127 88.2573 27.907 87.616 28.2932L87.5783 28.4085C87.0435 28.6545 86.5124 29.2793 86.0627 29.4511C85.8549 29.7801 85.6758 29.7301 85.525 30.0018C85.3615 30.0841 85.1988 30.1663 85.0457 30.2397L85.0442 30.3139C84.9303 30.3631 84.826 30.4042 84.7217 30.446C84.7069 30.4872 84.6973 30.5202 84.6854 30.5525C84.5035 30.6017 83.7756 31.021 83.7475 31.1032C83.5264 31.1363 83.3037 31.1693 83.0848 31.1935C82.5663 30.692 82.9879 30.0356 83.4591 29.2301H83.5574C83.5589 29.1809 83.5604 29.1317 83.5693 29.0825C83.192 29.3535 83.192 29.3535 82.6765 29.6163C82.6617 29.6575 82.6491 29.6986 82.6373 29.7316H82.4871C82.4686 29.7639 82.4494 29.797 82.4398 29.83C82.391 29.8388 82.3458 29.8388 82.3007 29.8388L82.2615 29.9534C81.5433 30.2985 80.8732 30.775 80.2489 30.9718C80.061 30.9718 79.8716 30.9718 79.6867 30.9637C79.5136 30.6685 79.4079 30.1913 79.9108 29.7889C79.8658 29.7815 79.8209 29.7732 79.7762 29.7639C78.5624 30.2405 77.4403 30.7331 76.3116 31.1363C75.1547 31.3499 74.1288 31.3081 75.1355 29.7316C75.228 29.6575 75.296 29.6332 75.3663 29.4195C74.0704 30.0525 72.7589 30.5283 71.5437 31.0298C70.1553 31.4652 68.491 32.0732 69.1412 30.1178C69.3491 29.7896 69.5036 29.6171 69.5199 29.5268C68.0221 30.2654 65.8578 31.5797 64.4864 31.5797C64.2231 31.4652 64.0737 31.3007 63.9768 31.2758L64.0345 31.1039C64.0006 31.1031 63.9671 31.0976 63.9347 31.0878C64.2853 29.8307 65.9532 28.7793 67.062 27.9415C66.6559 27.9415 65.5538 28.0568 64.843 28.1801C64.3688 28.6075 63.8718 29.059 63.5293 29.4533H63.4235L63.3851 29.5686H63.2874C63.1758 29.7 63.0641 29.8307 62.9553 29.9541C62.3769 30.1758 61.7682 31.0305 61.2201 31.3176C60.8916 31.6458 59.5706 32.944 59.1482 33.0343C58.9249 33.3868 57.5542 34.3809 57.305 34.4713L57.2695 34.5785C57.2385 34.5879 57.2064 34.5934 57.174 34.5946C57.0261 34.8575 56.7265 34.9889 56.5557 35.0711L56.518 35.1857C56.404 35.2099 56.1577 35.4074 55.9484 35.5139C55.3271 36.2041 53.3958 37.1814 53.1783 37.6087C50.588 39.2762 48.0539 40.8865 45.4806 42.2992C45.3089 42.4306 44.9524 42.5944 44.6166 42.833C42.1284 44.1723 41.1047 44.665 40.5736 44.969C40.4597 44.9932 40.3539 45.0182 40.2474 45.0431C39.9929 45.4455 35.6969 47.3671 35.0171 47.6879L34.9787 47.8032C34.8197 47.8274 34.222 48.1072 33.7064 48.2959L33.6709 48.4031C29.5739 50.3166 25.4177 52.2719 21.3902 54.0209L21.3517 54.1362C15.3308 56.5754 9.56057 58.8509 3.69792 59.9515C3.07882 60 3.07882 60 1.71412 60C0.620884 59.8194 -0.0389034 59.6718 0.00177865 58.3736C0.328714 57.5277 0.591298 56.7391 1.2644 55.8933H1.18156C1.19783 55.8441 1.19783 55.8441 1.28067 55.8441C1.37461 55.6965 1.47743 55.5489 1.57876 55.4006C1.60095 55.4006 1.63128 55.4006 1.66456 55.3918C2.08692 54.7346 2.20009 54.6443 2.29033 54.4637H2.39536C2.62022 54.0363 3.00781 53.4614 3.54629 53.1574C3.66982 52.9687 3.98196 52.5502 4.26821 52.4841C4.41023 52.2374 4.7453 52.0487 5.01824 51.7043C5.0678 51.7124 5.12105 51.7124 5.18171 51.7124C5.28082 51.5736 5.32742 51.5237 5.57595 51.4334L5.61146 51.3262H5.50568C5.52491 51.2689 5.69134 51.2439 5.79637 51.1786L5.85925 50.9892L6.63221 50.39C6.74538 50.2755 6.87112 50.2828 6.97763 50.053C7.20767 49.9304 7.363 49.7578 7.69585 49.6176L7.73432 49.503C7.76686 49.4942 7.80754 49.4869 7.85118 49.47C7.88003 49.4289 7.90888 49.3877 7.93995 49.3385C8.03167 49.3143 8.12264 49.2893 8.22102 49.2644C8.18885 49.2504 8.15952 49.2308 8.13448 49.2064C8.48287 49.0676 8.5524 48.9685 8.68702 48.9274C8.65965 48.9193 8.63228 48.9112 8.61231 48.9031L8.65003 48.7878C8.78761 48.7137 8.98436 48.6895 9.14413 48.4596H9.24177C9.42003 48.2621 9.52728 48.2129 9.83869 48.0492C9.82222 48.0333 9.81045 48.0132 9.80466 47.9912C9.85274 47.9831 9.90822 47.975 9.96369 47.9669L10.0022 47.8524C10.139 47.8032 10.139 47.8032 10.3202 47.8032C10.3468 47.7459 10.3816 47.6879 10.4179 47.6226C10.4711 47.5976 10.5251 47.5734 10.588 47.5403L10.6516 47.417C10.784 47.3597 10.9267 47.2944 11.0688 47.2283C11.0523 47.2128 11.0407 47.1929 11.0355 47.171C11.156 47.0807 11.2884 46.9331 11.5074 46.9331L11.5429 46.8259C11.6354 46.8421 11.6302 46.8582 11.7944 46.7268C11.7624 46.7128 11.7331 46.6935 11.7078 46.6695C11.8632 46.6122 12.128 46.3817 12.3314 46.3817C12.4764 46.1269 13.594 45.5108 14.026 45.3221L14.0637 45.2076C14.236 45.1415 14.3463 44.9939 14.5585 44.8552C14.5933 44.8632 14.6355 44.8706 14.6784 44.8794C14.7368 44.7722 14.7198 44.7318 14.9217 44.6246C14.9346 44.6551 14.9534 44.6828 14.9772 44.7061C15.1976 44.361 15.8493 44.2376 16.0534 43.9425C16.1008 43.9344 16.157 43.9263 16.2124 43.9182C16.2494 43.8522 16.2864 43.7861 16.3308 43.7207L16.5505 43.6715L16.5889 43.557C16.6281 43.5981 16.6747 43.6385 16.7243 43.6715C16.8796 43.4087 16.9225 43.3264 17.302 43.228C17.3205 43.195 17.3493 43.1531 17.3782 43.1128L17.6585 43.0636C17.7347 42.949 17.7347 42.949 17.8908 42.8176C17.926 42.8269 17.9623 42.832 17.9988 42.833L18.0764 42.7346H18.1748C18.1926 42.7016 18.2192 42.6685 18.2451 42.6355C18.3079 42.6516 18.7673 42.4717 18.8679 42.283C19.1245 42.1685 19.3893 42.0532 19.6534 41.9379C19.6369 41.9225 19.6253 41.9026 19.6201 41.8807C19.8317 41.8807 19.8235 41.8807 20.1009 41.6582C20.0949 41.6314 20.0939 41.6038 20.0979 41.5767C20.2533 41.4945 20.2533 41.4944 20.5203 41.4614C20.524 41.4291 20.527 41.3961 20.5336 41.3549C20.8176 41.2477 21.1024 41.1413 21.3968 41.0267H21.5477C21.5285 40.9937 21.5196 40.9518 21.5107 40.9114C21.7053 40.78 21.7053 40.78 21.9915 40.6897C22.1276 40.3945 22.5418 40.5744 22.9449 40.0905C23.0833 40.106 23.2615 40.0002 23.4272 40.0245C23.4583 39.9753 23.4901 39.9261 23.5241 39.8681C23.5648 39.86 23.6151 39.8438 23.6661 39.8269L23.7297 39.7036C23.8917 39.6705 24.1011 39.5391 24.3636 39.4987C24.4923 39.2931 25.6403 38.8335 25.9495 38.8335L26.0715 38.6037C26.5427 38.4561 27.025 38.1851 27.5857 37.9964L27.6241 37.8812H27.8726C27.8911 37.8481 27.9192 37.807 27.9488 37.7666C28.1204 37.7505 28.1204 37.7505 28.423 37.6102L28.4614 37.4957H28.6123L28.5546 37.6675C28.6434 37.6513 28.7314 37.6344 28.8224 37.6102L28.8608 37.4957C28.8082 37.4803 28.756 37.4639 28.704 37.4465C28.7965 37.3723 28.8956 37.3481 29.0739 37.3319C29.0694 37.2989 29.068 37.2578 29.0665 37.2167C29.5236 37.0448 29.8365 36.8965 30.3542 36.8143C30.3853 36.7651 30.4201 36.7071 30.4615 36.6498C31.4305 36.3216 31.4305 36.3216 31.6191 36.2063C31.6026 36.1906 31.591 36.1704 31.5858 36.1483C31.8247 36.0411 31.8247 36.0411 32.8832 35.7371L32.9217 35.6226C33.1295 35.5653 33.469 35.4508 33.7767 35.4089C33.7775 35.3847 33.7782 35.3604 33.7819 35.3274C34.0363 35.1952 34.637 34.8428 34.9313 34.9081L34.9668 34.8009C35.296 34.7194 35.4942 34.6203 35.8471 34.5792L35.8826 34.472C36.3293 34.4235 36.7946 34.1107 37.3331 34.0784C37.3649 34.0292 37.3959 33.9793 37.43 33.922C37.7369 33.8398 37.7369 33.8398 37.91 33.8398C38.3878 33.5358 39.1053 33.2157 39.7074 33.1503C39.6719 33.2575 39.6719 33.2575 39.7244 33.2575L39.7984 33.0358C40.294 32.9036 40.294 32.9036 40.4471 32.9205C40.6882 32.7399 40.848 32.6657 41.1409 32.6496L41.1764 32.5424C41.2511 32.5673 41.3288 32.5842 41.4064 32.6004C41.4242 32.5673 41.4508 32.5343 41.4767 32.5012C41.6017 32.5343 42.0492 32.2303 42.4331 32.2553C42.4201 32.2318 42.4106 32.2066 42.405 32.1804L42.6173 32.1561L42.6557 32.0416C42.8562 32.14 43.1839 31.836 43.422 31.9344C43.4405 31.9013 43.459 31.8683 43.4879 31.8272C43.546 31.8172 43.6033 31.8032 43.6595 31.7853C43.6713 31.8184 43.6832 31.8514 43.7053 31.8756C43.7216 31.8272 43.746 31.7773 43.7697 31.7281C44.0323 31.6869 44.3023 31.6466 44.5722 31.6054C44.5929 31.5636 44.6144 31.5232 44.6432 31.4821C45.0863 31.3749 45.6285 31.1943 46.184 30.9975C46.5057 30.4387 47.0849 30.0114 47.5117 29.4533H47.6101C47.8712 29.1002 48.1493 28.9195 48.6464 28.6486C48.9489 28.3277 49.673 27.7616 50.1716 27.5318L50.21 27.4165C50.2404 27.4165 50.6819 27.3343 50.5266 27.1455C50.5444 27.1375 51.4002 26.7182 51.5 26.5295C51.594 26.4965 51.6953 26.4642 51.7996 26.4223L51.8351 26.3158H51.9409C52.0133 26.2336 52.8078 25.6587 52.9875 25.6176C53.1347 25.3797 55.0586 24.3774 55.367 24.221L55.4025 24.1145C55.8493 23.8597 56.2938 23.5888 56.8545 23.3994L56.893 23.2848C57.0017 23.2518 57.1104 23.2187 57.2295 23.1776C57.2414 23.1446 57.2547 23.1035 57.268 23.0623C57.5609 22.9309 57.5609 22.9309 57.7747 22.8979L57.8102 22.7907C58.6556 22.4705 59.7688 21.7311 60.6897 21.5013L60.6912 21.4271C60.8939 21.3611 61.7615 21.1562 61.9568 20.9095C64.2934 20.1862 67.1507 19.3242 69.0739 20.2274C69.4001 20.5394 69.4001 20.5394 69.5118 20.5886C69.5003 20.6245 69.4882 20.6603 69.4755 20.6958H69.5739C69.568 20.7369 69.565 20.77 69.5606 20.803C69.9216 21.4191 69.4622 22.4125 69.1449 23.1189C68.6279 23.9236 67.852 25.2379 67.2506 25.6814C66.8763 26.1499 66.1788 26.8643 66.1211 26.9708C66.6877 26.9458 66.6877 26.9458 69.0539 26.6749L70.1228 26.1822C70.8121 25.9685 71.2811 25.6895 71.29 26.4781C71.2596 26.5023 71.2293 26.5273 71.2005 26.5435C74.617 26.6088 78.5513 26.2072 81.4723 27.5288C81.939 27.9642 81.7711 27.9231 82.5648 27.6683L83.1136 27.6933C83.1787 28.0215 83.1787 28.0215 83.1669 28.2594C83.411 28.161 83.7401 27.849 84.0264 27.849C84.0944 27.7836 84.1706 27.7095 84.249 27.6353C84.2734 27.6515 84.3052 27.6676 84.3385 27.6845C84.7232 27.2983 85.9118 27.0112 86.1012 26.7153C87.4681 27.1588 85.7313 28.3248 84.9125 29.0399C84.9125 29.0642 84.911 29.0884 84.9184 29.1141C84.6973 29.2125 84.4879 29.4996 84.4376 29.6068C85.7336 28.794 87.028 27.7587 88.4045 26.8386C87.6101 26.691 86.8142 26.5435 86.0265 26.3951C83.4494 26.0089 80.4686 25.6315 80.2755 25.5573C80.1024 25.2614 80.1061 24.9743 80.439 24.4978C82.0182 24.0382 84.3252 24.1035 85.8489 24.0294C91.0644 23.9222 91.2508 23.9721 91.3661 23.9221C92.2027 23.9221 92.3366 23.9713 92.58 23.9221C93.6199 23.9221 100.277 23.8979 100.387 24.0866C100.832 24.0866 101.423 24.1028 101.966 24.0543L101.932 24.1615C103.128 24.1454 104.337 24.3172 105.598 24.2188L105.56 24.3341C105.612 24.3341 105.612 24.3341 105.651 24.2188C105.859 24.2518 105.859 24.2518 106.006 24.2188C105.999 24.2541 105.997 24.2902 106 24.326C107.373 24.2768 108.725 24.5235 110.149 24.5235C111.551 24.6549 112.95 24.8025 114.442 24.8275C114.431 24.8632 114.419 24.8987 114.406 24.934C114.613 24.9259 115.061 24.8517 115.198 25.0492C115.216 25.0162 115.238 24.9751 115.266 24.934C115.76 24.967 116.156 25.0492 117.037 25.0735C117.269 25.3033 118.726 24.9832 118.775 25.3775C119.034 25.0324 120.844 25.4597 121.507 25.4597C121.441 25.5008 121.374 25.5419 121.318 25.575C121.392 25.5588 121.465 25.5419 121.54 25.517C122.78 25.575 126.486 25.9032 126.91 25.9854C126.856 26.0177 126.809 26.0427 126.763 26.0677C126.778 26.0919 126.795 26.1088 126.819 26.1249C127.029 26.0596 127.149 26.0177 127.316 26.1499C127.342 26.1176 127.376 26.0845 127.409 26.0515C127.562 26.0677 127.715 26.0845 127.871 26.0926C127.851 26.1506 127.745 26.1506 127.727 26.2079C127.889 26.1749 128.053 26.1337 128.218 26.0926C128.203 26.1337 128.191 26.1749 128.179 26.2079C128.335 26.1917 128.491 26.1749 128.658 26.1499C128.653 26.1824 128.652 26.2155 128.655 26.2483C128.917 26.1411 129.675 26.1499 130 26.1249C129.93 26.3202 129.867 26.5089 129.803 26.6984Z" fill="#141C21"/>
<path fill-rule="evenodd" clip-rule="evenodd" d="M101.16 32.3742C100.93 32.4557 100.672 32.6202 100.048 32.8419C97.0053 33.6474 93.75 33.8684 91.3002 33.0064C90.6167 32.5468 90.6167 32.5468 90.2683 32.2097C89.4769 30.8543 89.7283 29.8278 90.6455 27.9062C90.8756 27.5119 90.8031 27.4789 91.2291 27.4466C93.5709 27.9973 95.8247 28.5634 98.0844 29.319C98.9543 29.7624 100.981 30.5349 101.125 31.7097H101.231C101.199 31.8734 101.232 31.9314 101.192 32.0548C101.209 32.0732 101.23 32.0873 101.254 32.0959L101.16 32.3742ZM80.4891 28.4312C80.3012 28.5465 80.3012 28.5465 78.0852 29.4254C77.4032 29.6641 76.7057 29.9269 76.1117 30.0576L76.1465 29.9504H76.2449C76.2663 29.9093 76.2952 29.8689 76.324 29.8271C76.3787 29.819 76.4364 29.8028 76.503 29.7859C76.6502 29.5231 78.5793 28.3732 78.3004 27.8967C78.9794 27.8482 79.8582 28.2014 80.4891 28.4312ZM77.1302 27.7418C76.7101 27.8974 75.2663 28.5876 75.0037 28.5135C74.9904 28.5546 74.9778 28.5957 74.966 28.6287C74.0702 28.9408 73.2107 29.327 72.3845 29.7044C71.7269 29.91 70.7017 30.3454 70.1507 30.2955C70.3807 29.606 72.8475 28.4474 72.0561 27.6096C73.7351 27.5692 75.4342 27.5854 77.1302 27.7418ZM71.505 27.6346C69.4221 28.5054 67.3732 29.7206 65.3879 30.3858C66.1291 29.4496 67.8266 28.4723 68.9332 27.7741C70.4288 27.6514 70.4288 27.6514 71.505 27.6346ZM58.4912 28.1845C57.2552 28.0942 55.6013 28.7352 54.3106 28.8997L54.2721 29.0142H54.1212C54.1146 28.99 54.1153 28.965 54.1161 28.9401C53.8572 29.0392 53.6841 29.0392 52.9762 29.2609C51.5524 29.5972 50.1388 29.9262 48.7253 30.2551C48.4753 30.5099 47.8022 30.5591 47.5751 30.6076C47.5367 30.7229 47.5367 30.7229 47.4834 30.7229L47.5411 30.5503H47.6469C48.0404 30.0246 48.9206 29.3513 49.587 28.957C49.6262 28.9078 49.6677 28.8498 49.7172 28.7925C52.0553 27.0677 54.5784 25.5808 57.1103 24.1351C58.7353 23.3303 60.4454 22.5168 62.2044 21.8765C63.7725 21.4249 65.1431 21.0879 66.6898 21.0137L66.7371 20.9396L66.8961 20.9146C66.8846 20.9505 66.8725 20.9863 66.8599 21.0218H66.9368C66.9457 20.9903 66.9584 20.96 66.9745 20.9315C67.0049 20.9315 67.0367 20.9234 67.0699 20.9154C67.0584 20.9513 67.0463 20.987 67.0337 21.0226C67.587 21.0387 68.6188 21.1782 68.6573 21.8523C68.0042 23.8157 66.2822 25.5485 64.862 27.0266C64.7703 27.0758 64.6786 27.1257 64.5891 27.1661C62.5498 27.404 60.5534 27.741 58.5711 28.0781C58.5459 28.1146 58.5193 28.1501 58.4912 28.1845ZM63.487 28.349C63.2215 28.5442 62.978 28.7672 62.7606 29.0142H62.663C62.1659 29.8271 60.7391 30.3777 60.3478 31.101C60.0127 31.3147 59.1037 32.0291 58.952 32.2589H58.8544L58.8159 32.3742C58.7846 32.383 58.7523 32.3882 58.7198 32.3896C58.668 32.546 58.3477 32.6936 58.2442 32.8654C57.8677 32.9557 56.8358 33.8596 56.6983 34.0894C56.307 34.2458 55.6124 34.7473 55.4549 35.0183H55.304L55.2685 35.1255C55.0333 35.1747 54.0569 35.9552 53.9992 36.0617C53.2366 36.3825 52.3534 37.3341 51.8209 37.4413L51.7661 37.6058C51.1714 37.9428 50.7417 38.238 50.6352 38.2637L50.5967 38.3782C50.198 38.4436 49.4983 38.9612 49.1787 39.1507L49.1432 39.2579C49.0567 39.2902 48.9731 39.3152 48.8895 39.3394C48.9043 39.3643 48.9206 39.3805 48.9457 39.3967C48.1092 39.6676 47.3887 40.3828 46.6631 40.6368L46.6276 40.744C46.4057 40.7771 46.2851 40.9577 46.0521 41.0238C44.8908 41.6584 43.7391 42.31 42.5971 42.9784C42.5155 43.0014 42.4344 43.0261 42.3538 43.0525C42.3249 43.0937 42.3035 43.1348 42.2857 43.1671C41.873 43.2743 41.387 43.5783 41.0394 43.7178L41.0009 43.8323C40.8419 43.8566 40.6984 43.9718 40.4144 44.079C40.2709 44.1936 37.375 45.6232 37.1169 45.7869L35.4748 46.5755C35.446 46.6166 35.4171 46.657 35.3986 46.6901C35.3633 46.6834 35.329 46.6723 35.2966 46.657C35.244 46.7473 33.3579 47.5447 33.1641 47.6262L33.1264 47.7415C32.6086 47.9383 30.5619 48.9237 24.2547 51.791C24.0269 51.9305 24.0269 51.9305 19.1088 54.0003C18.9572 54.2955 16.2818 55.1994 15.8794 55.3228C13.3341 56.3366 10.7379 57.2196 8.10101 57.9683C5.93895 58.4859 2.79386 59.4632 1.11628 58.5931C1.05933 56.9499 2.59637 55.3235 3.85455 53.8535H3.96033C4.81465 52.802 6.21263 51.7513 7.36356 50.8313C7.40572 50.7733 7.44714 50.716 7.4967 50.6587H7.64759C7.7297 50.5023 9.75122 48.9589 10.0567 48.9009C10.0981 48.8436 10.1484 48.7856 10.1972 48.7284C11.4739 47.8825 12.7536 47.0285 14.0398 46.1739C19.4136 42.7816 24.8709 39.907 30.5893 37.6065L30.627 37.492C30.9081 37.4178 35.4504 35.5947 37.8159 34.7158C40.3715 33.853 42.9714 32.9748 45.5965 32.1532C45.6461 33.5659 47.8007 32.8926 48.9761 32.6216C49.8822 32.2765 50.789 31.9322 51.6981 31.5783C51.7868 31.4711 51.8756 31.4307 51.9163 31.217C52.0428 31.1759 52.0428 31.1759 52.1618 31.0452C52.1385 31.0304 52.1162 31.014 52.0953 30.996C52.2343 30.7581 52.275 30.659 52.3142 30.3388C55.0706 29.7606 57.8345 29.2184 60.6052 28.7124C63.2924 28.3248 63.2924 28.3248 63.487 28.349Z" fill="white"/>
<path fill-rule="evenodd" clip-rule="evenodd" d="M65.2251 17.2478C64.9477 17.5011 64.5661 17.9042 64.3308 17.9938C64.2539 18.2251 61.0992 20.2318 60.6502 20.3434L60.6147 20.4477C58.8795 21.1636 57.1997 21.9617 55.5628 22.5888C55.3594 22.8494 54.9925 23.2077 54.9829 23.4016L54.008 23.4244C53.8334 23.29 53.6818 23.2077 53.4932 23.1784C52.1669 23.4919 51.3341 23.5815 50.2482 23.3796C49.4967 22.9992 49.3932 22.917 49.3347 22.0447L49.5307 21.3956C49.6069 21.3728 49.6291 21.306 49.6831 21.1863C49.2438 21.1863 47.6645 21.947 47.2207 22.1262C46.4655 22.3949 45.717 22.6637 44.9707 22.9243C42.9395 23.4985 40.2893 24.3862 40.0718 22.0961C40.1554 21.8648 40.2397 21.6335 40.3336 21.3949C38.5999 22.1254 37.0769 22.8641 35.4348 23.1776C34.9178 23.1027 34.6914 23.1027 34.5923 22.5961H34.5035C34.5967 22.171 34.6648 22.0293 35.0361 21.5968C35.9888 20.7986 37.4179 19.5599 38.537 19.0452L38.5688 18.9483C38.6354 18.9336 38.7027 18.9182 38.7715 18.8962C38.9105 18.4784 42.6259 16.8667 43.4403 16.5458C44.2288 16.3219 44.2288 16.3219 45.0609 16.1728C44.572 16.0531 44.0438 15.8666 43.5357 15.8894C37.5148 17.9703 37.5148 17.9703 37.4497 18.0231C36.2913 18.3888 34.9222 18.7691 33.806 19.1715C33.7409 19.2237 31.5471 19.8727 31.482 19.9249C29.9531 20.372 29.7327 20.4763 28.2925 20.9242C27.2644 21.1254 26.2007 21.5358 25.2325 21.8266C19.1968 23.3781 18.9305 23.4757 17.5887 23.7739C17.5236 23.826 17.19 23.8781 17.0007 23.953C14.3208 24.4751 11.6528 25.0272 9.07138 25.3775C7.32427 25.5118 5.24431 25.8628 3.8848 25.2064C3.66437 24.9002 3.66437 24.9002 3.61777 24.7512C3.7731 24.326 4.41514 23.1027 4.98173 22.9463C4.99208 22.8942 5.00318 22.8421 5.02019 22.7899C5.16665 22.7004 5.33825 22.4544 5.53648 22.3949L5.56903 22.298C5.90262 22.2459 6.23917 21.6261 6.66448 21.6261C6.80132 21.4844 7.00178 21.4396 7.14305 21.2605C7.25992 21.2605 7.28433 21.1856 7.46851 21.1489L7.51807 20.9998C8.05877 20.8801 8.6727 20.3581 9.31917 20.1495L9.35393 20.0453C9.41533 20.0453 9.47746 20.0453 9.54181 20.0372L9.54329 19.9704C9.8325 19.9476 10.1328 19.7464 10.5189 19.5974L10.5537 19.4924C10.6217 19.5144 10.692 19.5298 10.763 19.5445L10.8126 19.3955C11.1602 19.3206 11.1602 19.3206 11.6943 19.0966L11.729 18.9924C12.0989 18.9329 12.5737 18.6414 13.0138 18.5966L13.0486 18.4923C13.1485 18.5224 13.1485 18.5224 13.2749 18.4923L13.3075 18.3954C14.6914 17.993 16.1205 17.4108 17.5887 17.0231C17.8025 16.9188 17.8025 16.9188 19.341 16.523C19.5673 16.523 19.5673 16.523 19.6605 16.4716C19.6456 16.4575 19.6351 16.4394 19.6302 16.4195C20.3425 16.2183 20.9446 16.1207 21.3366 15.9944C21.4653 15.7932 21.4653 15.7932 25.6903 11.0704C26.3353 10.414 26.9892 9.75024 27.6431 9.08646H27.7326C30.6254 5.99083 30.6254 5.99083 30.9894 5.66188C31.32 5.45335 31.5204 5.30429 31.9206 5.23674C31.8459 5.54293 31.8577 5.60974 31.7039 5.88582C31.6707 5.89426 31.6368 5.89942 31.6026 5.90124C31.4716 6.16998 31.2172 6.27425 31.0655 6.37851C29.9257 7.57168 28.7622 8.81773 27.6216 9.89195L27.4929 10.0931H27.3968C26.3361 11.3384 25.0372 12.4949 24.14 13.7035C24.0586 13.763 23.9795 13.8151 23.907 13.868C23.7273 14.4047 22.5319 15.2329 22.276 15.7925C24.4048 15.2557 26.7769 14.7476 28.8961 14.5692C29.0026 14.517 29.9612 14.4194 30.3732 14.4194C34.6559 13.8452 38.8565 14.0089 42.7879 14.5692C44.3471 14.8754 44.3471 14.8754 44.4869 14.8673C44.4573 14.8519 44.4277 14.8372 44.4055 14.8225L45.0099 14.5538C45.0208 14.5838 45.0371 14.6116 45.0579 14.636L45.1755 14.5912L45.2074 14.4943C45.6696 14.4047 46.3309 13.9869 46.8287 13.9348L46.8997 13.8452C47.0595 13.8599 47.132 13.8672 47.3842 13.7703C47.3406 13.7565 47.2983 13.739 47.2577 13.7182C47.325 13.6815 47.382 13.6734 47.5026 13.7035C47.5262 13.6734 47.5499 13.644 47.5832 13.6066C47.6727 13.6066 47.7644 13.5992 47.8561 13.5911L47.8879 13.4942C48.3598 13.3151 48.3598 13.3151 48.6564 13.2482C48.7511 13.1286 49.2356 12.9949 49.4516 12.9421L49.4864 12.8371L49.8717 12.7923C50.07 12.4046 50.9701 12.5235 51.4065 12.0389C51.6573 12.069 51.9798 11.823 52.3541 11.6879L52.3866 11.591C52.556 11.5756 52.7565 11.4493 52.9391 11.4794C52.9554 11.4493 52.9798 11.4192 53.0028 11.3898H53.0989L53.1315 11.2929C53.2764 11.2709 53.5546 11.1138 53.7062 11.0917C53.7275 11.0455 53.7517 11.0006 53.7787 10.9574C54.2632 10.9052 55.0827 10.2782 55.7018 10.0696C55.8646 9.97271 56.0273 9.87505 56.1967 9.77887C56.207 9.74876 56.224 9.71866 56.2403 9.68929C56.3091 9.68929 56.3845 9.68929 56.4622 9.68195C56.6161 9.4881 57.298 9.13052 57.5791 8.98807L57.6109 8.89115C58.0791 8.74209 59.5984 7.48137 59.9845 6.98134C60.3544 6.83963 60.577 5.96659 61.0371 5.69786C61.3433 4.78077 61.5771 4.40776 61.2738 3.63165C61.2982 3.41577 60.4816 2.71382 60.4239 2.66169C59.1539 1.92303 57.5947 1.43107 56.0391 1.25926C55.934 1.23211 55.8303 1.19977 55.7285 1.16233C55.1929 1.16233 55.1929 1.16233 51.8119 0.909013C43.2457 0.909013 34.3941 2.52806 25.4389 4.66108C21.0948 5.8102 20.4786 6.01138 19.4268 6.26544C16.9023 7.06358 16.1486 7.26476 15.9792 7.36168C11.8489 8.59304 7.71556 10.1592 3.66363 11.6064C3.64662 11.6358 3.637 11.6659 3.62961 11.6879C1.46607 12.5162 1.03484 12.7174 0.480082 12.9193C0.00817082 12.8517 0.0503322 12.561 0.382445 12.0389C0.707901 11.9273 1.04371 11.8076 1.37804 11.6879L1.40985 11.591C6.74659 9.68855 12.0678 7.83088 17.4689 6.06351C17.6338 6.06351 17.6863 6.04883 17.9304 5.91446C19.0902 5.58625 20.2523 5.25069 21.4143 4.91513C21.9691 4.87769 22.7021 4.42979 23.2886 4.48265L23.3204 4.38573C26.3272 3.68451 29.3769 2.91648 32.4517 2.26005C32.8496 2.19984 33.4081 2.17047 33.8948 1.94652L33.9547 2.01407C34.0035 1.96928 34.6493 1.86502 34.7151 1.81289C36.3165 1.55957 36.3165 1.55957 37.2596 1.36572C37.9149 1.31359 37.9149 1.31359 37.9807 1.26072C42.3737 0.559505 46.6623 0.112341 50.9346 0.0822367C50.9494 0.0602089 50.9724 0.0301046 50.996 0C54.4496 0.141712 58.1272 0.186504 60.9269 1.73065C60.935 1.76736 60.9432 1.80481 60.9535 1.83492C61.1059 1.79013 61.6532 2.34963 61.7812 2.46124C62.509 3.46864 62.3567 4.19189 61.8966 5.65453C61.8648 5.66995 61.8322 5.6839 61.8056 5.69932C61.401 6.70673 60.3655 7.60913 59.682 8.34045H59.5925C59.4764 8.48216 59.4253 8.51227 59.3403 8.54164L59.3077 8.63857C58.3416 9.30388 57.3494 9.93118 56.3335 10.519C55.6005 10.8847 54.8682 11.2496 54.1374 11.6079C54.1236 11.634 54.1122 11.6613 54.1034 11.6894L50.908 13.122C45.5942 15.1213 45.5942 15.1213 45.5003 15.1962C46.5321 15.6214 46.5321 15.6214 47.2792 15.9944L47.2466 16.0913C48.1779 16.5091 48.4116 17.1875 48.7245 18.1428C48.5492 18.7097 48.4745 18.9336 48.1476 19.3588C47.9271 19.4035 47.9382 19.5746 47.8199 19.6422C47.7282 19.6268 47.7282 19.6268 47.5987 19.687C47.5292 19.5673 47.1719 19.463 47.6571 19.1421L47.8569 18.5452C47.4279 17.4864 46.8154 17.0385 45.8612 16.5238L45.737 16.5465C45.8553 16.7477 45.7296 17.0018 45.6741 17.1883C45.8871 17.1068 46.1016 17.1215 46.3553 17.1215C46.5092 17.4644 46.4278 17.584 46.291 17.9938C46.2214 18.0158 46.1549 18.0312 46.095 18.0459C46.0841 18.0781 46.0735 18.1104 46.0632 18.1428C45.9123 18.2251 45.7636 18.2992 45.6157 18.3741C44.3915 19.2244 43.2716 19.8661 42.0874 20.4925C41.5534 21.0219 40.8832 21.6107 41.0156 22.2231C42.0778 23.3201 45.9803 21.701 47.5514 21.1261C48.6964 20.6562 49.8444 20.1789 50.9916 19.7017C51.269 19.5078 51.269 19.5078 51.3474 19.3962H51.4369C51.7046 19.1275 51.9628 18.8888 52.3718 18.6722C53.3807 17.8608 54.4545 17.1324 55.5827 16.4944L55.6153 16.3975C56.0665 16.1963 56.5569 15.9202 56.6538 15.8975C56.8328 15.5465 59.5422 14.5024 60.1413 14.2718C60.597 14.1822 60.8522 14.1147 61.2065 14.3908C61.1932 14.451 61.1902 14.5024 61.1865 14.5552C61.2161 14.5706 61.2449 14.5853 61.2767 14.5927C61.1066 15.0626 61.0452 15.1221 60.739 15.4429C59.5289 16.2932 58.1198 17.203 56.9326 17.6957L56.9008 17.7926C56.605 17.8968 53.2173 19.5754 52.5257 19.8588L52.482 19.9256C51.6684 20.2465 49.8902 21.3581 50.3451 22.2158C51.2675 22.7231 52.4132 22.5587 53.7195 22.2231C53.7802 22.1857 53.8475 22.1482 53.917 22.1034C53.9843 21.9022 55.1937 20.9323 55.5598 20.8427C55.5702 20.8126 55.579 20.7825 55.5924 20.7458C56.4548 20.3206 57.3032 19.6488 58.2959 19.2464L58.3306 19.1421C60.2575 18.1795 62.2213 17.0458 64.2813 16.4269C65.0528 16.4276 65.4012 16.3901 65.2251 17.2478Z" fill="#141C21"/>
<path fill-rule="evenodd" clip-rule="evenodd" d="M63.6658 17.6435C62.3721 18.5158 61.2308 19.1803 59.977 19.8742C57.6663 20.8735 56.3948 21.3736 56.2018 21.4778H56.0849C58.4762 20.0369 60.9577 18.7489 63.5142 17.6215L63.6658 17.6435ZM59.196 15.592C58.7987 15.816 56.3157 17.1061 56.1056 17.3454C56.0907 17.3313 56.0801 17.3132 56.0753 17.2933C55.7269 17.4725 54.9081 17.9718 54.6751 17.9718C55.8571 17.062 57.7321 16.1743 59.1138 15.57C59.139 15.5766 59.1641 15.5847 59.196 15.592ZM44.904 17.3454C44.2664 17.7559 42.8107 19.0313 42.4801 19.0981L42.4017 19.2097C42.2449 19.2472 41.6443 19.814 41.588 19.8588C39.9223 20.7164 37.2417 22.1262 35.6218 22.1262C36.2483 21.5447 37.5753 20.3662 38.3239 20.0974C38.3431 20.06 38.369 20.0233 38.3956 19.9858C39.997 18.9938 43.222 17.062 44.9373 17.2478L44.904 17.3454ZM42.3595 15.592C42.2427 15.614 42.128 15.6295 42.0193 15.6441C42.0023 15.6963 42.0977 15.6963 42.0829 15.7411C42.0412 15.7551 41.9997 15.7701 41.9586 15.7859C41.9549 15.7558 41.9505 15.7257 41.9542 15.6963H41.8647L41.8321 15.7932C41.4653 15.8233 41.1908 16.0091 40.9061 16.0392C40.8794 16.0766 40.8602 16.1141 40.8439 16.1442C40.4667 16.2037 40.2123 16.3307 39.8979 16.3454C39.75 16.5018 39.5584 16.4797 39.4844 16.4952L39.4519 16.5921C39.1908 16.6743 39.1257 16.7264 38.8919 16.7485C38.8811 16.7807 38.8705 16.813 38.8601 16.8454C38.6545 16.8226 38.5546 16.8755 38.2455 16.8975C38.0739 17.1435 37.8949 17.084 37.7625 17.0914C37.7336 17.1362 37.7077 17.1736 37.6878 17.2111C37.1263 17.4122 36.5257 17.5473 36.0028 17.6957L35.9702 17.7926C34.6832 18.0907 33.1084 18.6135 31.871 19.1356C31.8515 19.1136 31.8365 19.0882 31.8266 19.0607C31.7667 19.0761 31.7134 19.0908 31.6631 19.0981L31.6306 19.195C31.4331 19.2325 31.2348 19.2699 31.0462 19.2993C31.0354 19.3315 31.0248 19.3638 31.0144 19.3962C30.6438 19.314 29.6793 19.7766 29.2111 19.8434L29.1763 19.9476C28.0069 20.2839 26.731 20.6936 25.6244 20.9249C25.0386 21.179 24.1599 21.447 23.6894 21.4999L23.6399 21.6489C23.5918 21.6489 23.5918 21.6489 23.6266 21.5447C22.2804 21.9177 21.0007 22.2158 19.7662 22.4992L19.7337 22.5961C18.9356 22.6637 18.0184 23.0888 17.3719 23.0514C17.3408 23.1035 17.312 23.1483 17.2831 23.1931C17.257 23.1724 17.2326 23.1498 17.2099 23.1255C15.34 23.4838 13.4058 23.9317 11.5899 24.2519L11.5573 24.3488C10.5129 24.3113 9.29763 24.7446 8.3575 24.6623C8.33383 24.6924 8.31016 24.7218 8.29389 24.7519C7.16219 24.7299 5.33076 25.0133 4.53857 24.4465C5.09037 23.6777 5.53269 23.2973 6.35817 22.7158C6.49205 22.522 7.4514 21.9926 7.66961 21.8501C9.5395 20.8728 9.5395 20.8728 9.86348 20.7465L9.89602 20.6496C9.95372 20.6422 10.0181 20.6342 10.0817 20.6276C11.8783 19.7472 13.8977 19.0232 15.7779 18.449C15.8452 18.3293 18.3379 17.6061 18.7492 17.5466C18.6974 17.949 19.1804 18.0239 19.5576 18.0239C19.8816 17.8741 20.6679 17.4945 20.926 17.0914H21.0155L21.0651 16.9423C23.2072 16.4276 25.3752 16.0171 27.5594 15.6221C32.6025 15.07 37.775 14.6448 42.3595 15.592Z" fill="white"/>
</svg>
